Coordinates
version=1
nRows=12
nColumns=63
inDegrees=yes

Units are S.I. units (second, meters, Newtons, ...)
If the header above contains a line with 'inDegrees', this indicates whether rotational values are in degrees (yes) or radians (no).

endheader
time	pelvis_tilt	pelvis_list	pelvis_rotation	pelvis_tx	pelvis_ty	pelvis_tz	hip_flexion_r	hip_adduction_r	hip_rotation_r	knee_angle_r	knee_angle_r_beta	ankle_angle_r	subtalar_angle_r	mtp_angle_r	hip_flexion_l	hip_adduction_l	hip_rotation_l	knee_angle_l	knee_angle_l_beta	ankle_angle_l	subtalar_angle_l	mtp_angle_l	L5_S1_Flex_Ext	L5_S1_Lat_Bending	L5_S1_axial_rotation	L4_L5_Flex_Ext	L4_L5_Lat_Bending	L4_L5_axial_rotation	L3_L4_Flex_Ext	L3_L4_Lat_Bending	L3_L4_axial_rotation	L2_L3_Flex_Ext	L2_L3_Lat_Bending	L2_L3_axial_rotation	L1_L2_Flex_Ext	L1_L2_Lat_Bending	L1_L2_axial_rotation	L1_T12_Flex_Ext	L1_T12_Lat_Bending	L1_T12_axial_rotation	Abs_r3	Abs_r2	Abs_r1	Abs_t1	Abs_t2	neck_flexion	neck_bending	neck_rotation	arm_flex_r	arm_add_r	arm_rot_r	elbow_flex_r	pro_sup_r	wrist_flex_r	wrist_dev_r	arm_flex_l	arm_add_l	arm_rot_l	elbow_flex_l	pro_sup_l	wrist_flex_l	wrist_dev_l
2.645833	-5.648713	-15.460566	94.527317	0.301741	0.782854	0.868271	11.782493	-0.591411	3.206356	1.748842	0.030523	16.370456	-4.324992	0.000000	15.321792	2.053479	-6.588629	9.613446	0.167786	20.428291	7.027693	0.000000	-0.208471	-0.167975	-0.148237	-0.387152	-0.223406	-0.157501	-0.342498	-0.408413	-0.157501	-0.238262	-0.408413	-0.129707	-0.193587	-0.342534	-0.120442	-0.119121	-0.260193	-0.111177	-1.489090	-1.900162	-0.824448	0.000000	0.000000	10.934192	5.738622	-1.167109	51.052788	-53.693166	12.019724	141.247525	76.194586	10.650165	14.262244	16.610890	-18.493658	24.419768	132.036878	68.664097	-20.673197	5.025822
2.666667	-5.720843	-15.247926	94.716582	0.301778	0.783295	0.867355	11.519765	-0.688855	2.592982	1.936126	0.033792	16.771982	-3.595737	0.000000	15.143265	2.103807	-6.656993	9.791661	0.170897	20.528800	7.381891	0.000000	-0.197045	-0.172676	-0.284514	-0.365933	-0.229659	-0.302297	-0.323725	-0.419844	-0.302297	-0.225203	-0.419844	-0.248950	-0.182976	-0.352121	-0.231168	-0.112592	-0.267475	-0.213386	-1.407474	-1.953345	-1.582384	0.000000	0.000000	11.946158	5.332323	-0.341996	50.090854	-53.126421	13.141647	142.195965	74.454121	12.116255	15.808533	14.939013	-19.072991	23.062846	132.210254	73.733039	-19.958535	4.750083
2.687500	-5.788060	-14.997376	94.882188	0.301843	0.783754	0.866309	11.213593	-0.776311	2.080001	2.122282	0.037041	17.176925	-2.964105	0.000000	14.887331	2.146375	-6.700680	9.913656	0.173026	20.630294	7.691015	0.000000	-0.184064	-0.178103	-0.416638	-0.341826	-0.236878	-0.442678	-0.302399	-0.433041	-0.442678	-0.210367	-0.433041	-0.364558	-0.170922	-0.363188	-0.338518	-0.105174	-0.275882	-0.312479	-1.314753	-2.014741	-2.317216	0.000000	0.000000	13.005208	4.906598	0.411383	49.088337	-52.471927	14.061222	143.249491	72.566042	13.668781	16.917049	13.049254	-19.806849	21.829701	132.647324	77.168282	-19.455866	3.979275
2.708333	-5.842212	-14.711689	95.048909	0.301892	0.784239	0.865113	10.857162	-0.847114	1.648186	2.293470	0.040029	17.566207	-2.452535	0.000000	14.556287	2.177420	-6.737620	9.976878	0.174129	20.717038	7.982128	0.000000	-0.168535	-0.183690	-0.547965	-0.312986	-0.244308	-0.582213	-0.276886	-0.446625	-0.582213	-0.192618	-0.446625	-0.479469	-0.156501	-0.374581	-0.445222	-0.096301	-0.284536	-0.410974	-1.203826	-2.077941	-3.047617	0.000000	0.000000	14.092942	4.510036	1.085469	48.064271	-51.754707	14.739120	144.350168	70.767973	15.070296	17.465657	10.922442	-20.642561	20.561354	133.319944	79.258646	-19.011287	3.063125
2.729167	-5.865867	-14.386533	95.199869	0.301910	0.784739	0.863748	10.442463	-0.881160	1.300057	2.433584	0.042474	17.930722	-2.032695	0.000000	14.147929	2.176566	-6.792455	9.989298	0.174346	20.815851	8.266655	0.000000	-0.150872	-0.187453	-0.670733	-0.280184	-0.249312	-0.712654	-0.247867	-0.455772	-0.712654	-0.172431	-0.455772	-0.586891	-0.140099	-0.382253	-0.544971	-0.086208	-0.290364	-0.503050	-1.077661	-2.120501	-3.730416	0.000000	0.000000	15.181495	4.152120	1.611863	46.941298	-51.030720	15.046177	145.459314	69.024242	16.203856	17.432027	8.613506	-21.515736	19.386912	134.219083	79.320842	-18.820201	1.718668
2.750000	-5.872535	-14.037908	95.340840	0.301909	0.785235	0.862234	9.982275	-0.892157	1.086276	2.535547	0.044254	18.242199	-1.792287	0.000000	13.685052	2.156812	-6.894672	9.962595	0.173880	20.914475	8.572249	0.000000	-0.129811	-0.191518	-0.792864	-0.241071	-0.254719	-0.842418	-0.213266	-0.465656	-0.842418	-0.148361	-0.465656	-0.693756	-0.120542	-0.390543	-0.644202	-0.074174	-0.296661	-0.594648	-0.927225	-2.166486	-4.409673	0.000000	0.000000	16.218678	3.899692	2.017037	45.700219	-50.277068	14.968419	146.531614	67.610103	17.114539	16.805323	6.084369	-22.356946	18.091190	135.311712	78.030711	-18.690097	0.293038
2.770833	-5.878328	-13.672362	95.472817	0.301898	0.785733	0.860574	9.475436	-0.893084	1.020713	2.589478	0.045195	18.489061	-1.753304	0.000000	13.167582	2.133469	-7.036588	9.883891	0.172506	20.983693	8.892526	0.000000	-0.105372	-0.197330	-0.910578	-0.195686	-0.262449	-0.967489	-0.173115	-0.479789	-0.967489	-0.120429	-0.479789	-0.796755	-0.097848	-0.402396	-0.739844	-0.060209	-0.305665	-0.682933	-0.752660	-2.232241	-5.064359	0.000000	0.000000	17.124503	3.763868	2.313911	44.261417	-49.508509	14.504368	147.561126	66.946169	17.827375	15.599554	3.377715	-23.131427	16.701928	136.563645	75.268687	-18.685977	-1.262532
2.791667	-5.893809	-13.310441	95.606806	0.301916	0.786213	0.858751	8.941354	-0.893136	1.076593	2.596809	0.045323	18.683189	-1.895477	0.000000	12.630553	2.117024	-7.201606	9.782595	0.170738	21.027452	9.210081	0.000000	-0.076498	-0.206883	-1.020360	-0.142064	-0.275154	-1.084133	-0.125678	-0.503015	-1.084133	-0.087429	-0.503015	-0.892815	-0.071036	-0.421876	-0.829043	-0.043711	-0.320462	-0.765270	-0.546415	-2.340301	-5.674936	0.000000	0.000000	17.892820	3.855748	2.549372	42.479538	-48.687635	13.564734	148.589240	67.409012	18.600157	14.198221	0.552416	-23.805001	15.212036	137.926436	71.297850	-18.729004	-2.881036
2.812500	-5.915733	-12.961342	95.753432	0.301942	0.786682	0.856760	8.389684	-0.891128	1.186909	2.560536	0.044690	18.829306	-2.139948	0.000000	12.085536	2.099499	-7.448075	9.662948	0.168650	21.051916	9.628845	0.000000	-0.043176	-0.219163	-1.111423	-0.080181	-0.291487	-1.180887	-0.070933	-0.532874	-1.180887	-0.049345	-0.532874	-0.972495	-0.040093	-0.446918	-0.903031	-0.024671	-0.339484	-0.833567	-0.308399	-2.479219	-6.181402	0.000000	0.000000	18.521052	4.130669	2.709259	40.250682	-47.850465	12.204907	149.583387	68.968966	19.626291	13.076175	-2.283540	-24.333066	13.648555	139.275446	66.980468	-18.802471	-4.265778
2.833333	-5.936237	-12.650502	95.911691	0.301959	0.787089	0.854603	7.852311	-0.883715	1.307737	2.488089	0.043425	18.932462	-2.434121	0.000000	11.563908	2.083487	-7.688035	9.532303	0.166370	21.047506	10.019129	0.000000	-0.001138	-0.232445	-1.176689	-0.002114	-0.309151	-1.250232	-0.001870	-0.565166	-1.250232	-0.001301	-0.565166	-1.029603	-0.001057	-0.474001	-0.956060	-0.000650	-0.360057	-0.882517	-0.008130	-2.629461	-6.544392	0.000000	0.000000	19.011901	4.594896	2.863949	37.545104	-47.139781	10.819206	150.441089	70.548371	20.462526	12.370865	-5.027992	-24.689533	12.058165	140.477624	63.102508	-18.816156	-5.330645
2.854167	-5.979951	-12.315710	96.060535	0.302051	0.787556	0.852334	7.264375	-0.883528	1.453246	2.378561	0.041514	18.968331	-2.788006	0.000000	10.986421	2.079705	-7.937307	9.362918	0.163414	20.988766	10.407235	0.000000	0.038442	-0.249110	-1.205496	0.071390	-0.331317	-1.280839	0.063156	-0.605687	-1.280839	0.043935	-0.605687	-1.054809	0.035697	-0.507986	-0.979465	0.021966	-0.385872	-0.904122	0.274587	-2.817987	-6.704605	0.000000	0.000000	19.370882	5.148382	2.889955	34.391791	-46.560673	9.705327	151.046027	71.879055	20.943080	12.195142	-7.502396	-24.903472	10.494731	141.384551	60.453164	-18.598416	-5.968504
2.875000	-6.034527	-11.977032	96.215766	0.302184	0.788066	0.850053	6.659725	-0.885868	1.548176	2.247156	0.039220	18.942334	-3.128947	0.000000	10.396143	2.085393	-8.123511	9.184469	0.160299	20.864432	10.697136	0.000000	0.079214	-0.266224	-1.212190	0.147108	-0.354078	-1.287952	0.130140	-0.647297	-1.287952	0.090533	-0.647297	-1.060666	0.073558	-0.542884	-0.984904	0.045263	-0.412381	-0.909142	0.565815	-3.011581	-6.741837	0.000000	0.000000	19.586465	5.768703	2.971605	31.038732	-46.074004	9.270630	151.293219	72.285274	20.668106	12.823840	-9.694206	-24.960211	8.938963	141.944252	59.147783	-18.051667	-6.279505
